<?xml version="1.0" encoding="UTF-8" standalone="no"?>
<!-- Created with Inkscape (http://www.inkscape.org/) -->

<svg
   width="511.99997"
   height="511.99997"
   viewBox="0 0 135.46665 135.46666"
   version="1.1"
   id="svg5"
   inkscape:version="1.3.2 (091e20e, 2023-11-25)"
   sodipodi:docname="rubenfgr-logo.svg"
   inkscape:export-filename="/home/rubenfgr/DevOps/projects/ruben-rosales/images/icono_logo_512_x_512.png"
   inkscape:export-xdpi="96"
   inkscape:export-ydpi="96"
   xmlns:inkscape="http://www.inkscape.org/namespaces/inkscape"
   xmlns:sodipodi="http://sodipodi.sourceforge.net/DTD/sodipodi-0.dtd"
   xmlns="http://www.w3.org/2000/svg"
   xmlns:svg="http://www.w3.org/2000/svg">
  <sodipodi:namedview
     id="namedview7"
     pagecolor="#ffffff"
     bordercolor="#666666"
     borderopacity="1.0"
     inkscape:pageshadow="2"
     inkscape:pageopacity="0.0"
     inkscape:pagecheckerboard="0"
     inkscape:document-units="mm"
     showgrid="false"
     units="px"
     width="512px"
     showguides="false"
     fit-margin-top="0"
     fit-margin-left="0"
     fit-margin-right="0"
     fit-margin-bottom="0"
     inkscape:zoom="0.5"
     inkscape:cx="252"
     inkscape:cy="156"
     inkscape:window-width="1512"
     inkscape:window-height="865"
     inkscape:window-x="0"
     inkscape:window-y="38"
     inkscape:window-maximized="1"
     inkscape:current-layer="layer1"
     inkscape:showpageshadow="2"
     inkscape:deskcolor="#d1d1d1" />
  <defs
     id="defs2" />
  <g
     inkscape:label="Layer 1"
     inkscape:groupmode="layer"
     id="layer1"
     transform="translate(-0.00328921,-7.7679026e-4)">
    <rect
       style="fill:#f3f3f3;fill-opacity:1;stroke:none;stroke-width:3.96875;stroke-linecap:square;stroke-linejoin:miter;stroke-miterlimit:4;stroke-dasharray:none;stroke-opacity:1"
       id="rect27012"
       width="135.46666"
       height="135.46666"
       x="0.0032892099"
       y="0.00077663938" />
    <path
       style="fill:#fa8d62;fill-opacity:1;stroke:none;stroke-width:0.264583px;stroke-linecap:butt;stroke-linejoin:miter;stroke-opacity:1"
       d="m 0.00328921,135.46744 135.46666079,-1e-5 0.0443,-44.519582 c 0,0 -8.48231,11.429492 -15.03986,16.332592 -5.53351,4.13742 -13.41298,8.30868 -21.791098,9.93937 -8.537555,1.66172 -17.695871,-0.0985 -27.936171,-3.82505 -9.956632,-3.62337 -13.70946,-10.04778 -28.642558,-9.69285 -16.298723,0.38738 -41.83247372,17.43314 -41.83247372,17.43314 z"
       id="path30356"
       sodipodi:nodetypes="cccsssscc" />
    <path
       style="fill:#2b616d;fill-opacity:1;stroke:none;stroke-width:0.264583px;stroke-linecap:butt;stroke-linejoin:miter;stroke-opacity:1"
       d="M 135.46995,7.7679026e-4 H 0.00328921 V 45.596355 c 0,0 4.48748909,-7.535942 10.34228479,-14.102315 4.754648,-5.332516 9.92234,-9.316499 15.019627,-12.009079 6.347054,-3.352755 18.805974,-6.368341 29.515528,-6.858658 11.676676,-0.534595 24.720129,0.914701 34.319081,6.456658 10.439308,6.027138 15.0153,20.17308 25.4546,26.200217 7.31654,4.224207 21.05755,1.777959 21.05755,1.777959 z"
       id="path31330"
       sodipodi:nodetypes="cccssssscc" />
    <path
       style="fill:#2b616d;fill-opacity:1;stroke:#2b616d;stroke-width:0.665;stroke-linecap:butt;stroke-linejoin:miter;stroke-opacity:1;stroke-miterlimit:4;stroke-dasharray:none"
       d="m 10.232183,59.966623 c 0,0 3.198682,-6.584789 5.448144,-9.436463 1.965287,-2.491422 4.390418,-4.618882 6.909307,-6.548839 2.028304,-1.554074 4.309998,-2.751264 6.539374,-3.999881 2.00964,-1.125549 6.154121,-3.142676 6.154121,-3.142676 l -2.497023,-6.021091 c 0,0 7.473624,-1.530756 11.257758,-1.971148 5.872126,-0.683389 11.794172,-1.136186 17.70506,-1.034786 4.173531,0.0716 8.403454,0.211684 12.468685,1.158986 2.63334,0.613635 5.274924,1.478248 7.576743,2.896928 2.409874,1.485278 4.948266,3.222136 6.274356,5.723142 1.165334,2.197819 1.478173,4.932181 1.069144,7.385976 -0.441347,2.647673 -2.03241,5.042537 -3.676338,7.164437 -1.746251,2.253974 -3.979123,4.16576 -6.393463,5.682583 -3.607954,2.266718 -7.740175,3.619442 -11.797059,4.922145 -2.982584,0.957735 -9.158462,2.10716 -9.158462,2.10716 0,0 2.854148,3.251415 4.134435,4.991751 2.079025,2.826087 3.646174,6.007219 5.739749,8.822544 2.15563,2.898774 4.221418,5.964241 6.998538,8.274486 2.454767,2.042084 5.276818,3.777782 8.317807,4.751626 3.602895,1.153789 7.524181,1.485025 11.291758,1.142325 4.663918,-0.424232 9.211603,-2.016524 13.493623,-3.912938 3.02739,-1.340766 5.89706,-3.108948 8.45988,-5.205304 2.98568,-2.442249 5.60075,-5.359045 7.89767,-8.457917 3.04683,-4.110614 7.68762,-13.286216 7.68762,-13.286216 0,0 -0.87398,6.565227 -1.84529,9.732624 -1.10816,3.613642 -2.42307,7.13703 -4.52748,10.276757 -2.22779,3.323808 -4.88815,6.410757 -7.92512,9.016053 -3.33684,2.862546 -7.13294,5.237424 -11.11565,7.099329 -3.90253,1.824422 -8.054328,3.312264 -12.322497,3.896234 -4.903151,0.67084 -10.016903,0.60911 -14.837762,-0.50903 -3.979353,-0.92296 -7.816198,-2.699642 -11.182239,-5.014137 -3.423083,-2.353717 -6.311647,-5.490503 -8.831868,-8.792922 -2.731399,-3.579139 -4.418259,-7.846317 -6.665709,-11.747566 -1.226961,-2.129827 -2.017561,-4.594818 -3.722566,-6.365285 -1.66789,-1.731927 -3.78068,-3.187337 -6.085175,-3.873434 -2.746249,-0.817617 -8.595522,-0.102102 -8.595522,-0.102102 l -11.751278,30.73941 -11.359836,0.04513 1.38387,-4.086421 C 17.455687,79.079699 18.729632,76.20395 24.843652,60.840959 l 7.073755,-16.320976 c 0,0 -4.417215,5.47937 -7.17304,7.61678 -2.663099,2.065492 -5.883257,3.290215 -8.853595,4.882523 -1.874383,1.0048 -5.658589,2.947337 -5.658589,2.947337 z"
       id="path31663"
       sodipodi:nodetypes="csssccssssssssscsssssssscsssssssssssccccccssc" />
    <path
       style="fill:#2b616d;stroke:#2b616d;stroke-width:0.264583px;stroke-linecap:butt;stroke-linejoin:miter;stroke-opacity:1;fill-opacity:1"
       d="m 24.802877,60.849931 c 0,0 -7.129925,0.998423 -10.385045,2.489298 -2.712921,1.242543 -5.1670977,3.08855 -7.3153064,5.159553 -1.529359,1.474395 -3.0565198,3.104067 -3.8612764,5.070064 -0.7933947,1.93824 -1.0873227,4.159827 -0.7907307,6.233057 0.2992617,2.091892 1.4050048,4.023851 2.5291876,5.813203 0.9509351,1.513595 2.142604,2.900348 3.5016434,4.061494 1.2673482,1.082806 4.2507305,2.63421 4.2507305,2.63421 0,0 -3.9875303,-5.245714 -5.2858202,-8.239352 -0.9974406,-2.29993 -2.050837,-4.79208 -1.8461058,-7.29061 0.1525877,-1.862173 1.0754644,-3.677864 2.2421135,-5.137282 1.3254932,-1.658124 3.2519415,-2.785339 5.1324135,-3.770291 1.668052,-0.873691 3.513319,-1.743899 5.434882,-1.912143 1.921563,-0.168244 4.429681,-0.222821 4.517578,-0.441636 z"
       id="path32591"
       sodipodi:nodetypes="csssssscsssszsc" />
    <path
       style="fill:#f3f3f3;stroke:#293241;stroke-width:0.264583px;stroke-linecap:butt;stroke-linejoin:miter;stroke-opacity:1;fill-opacity:1"
       d="M 46.017119,38.209197 37.976392,58.23629 c 0,0 13.018727,-0.01604 19.379387,-1.213816 4.149492,-0.781391 8.569805,-1.491071 12.064593,-3.860736 2.381286,-1.614647 4.772988,-3.876063 5.486191,-6.663346 0.504895,-1.973191 0.03123,-4.337094 -1.14081,-6.002846 -1.105212,-1.570778 -3.119017,-2.392865 -4.964654,-2.924336 -3.647856,-1.050439 -7.589044,-0.429548 -11.383658,-0.323786 -3.812126,0.10625 -11.400322,0.961773 -11.400322,0.961773 z"
       id="path38491"
       sodipodi:nodetypes="ccssssssc" />
    <path
       style="fill:#fa8d62;fill-opacity:1;stroke:#ee6b4d;stroke-width:0.264583px;stroke-linecap:butt;stroke-linejoin:miter;stroke-opacity:1"
       d="m 69.418882,68.432977 11.42799,-0.0122 c 0,0 1.92046,6.055144 3.76867,8.569444 1.74825,2.378315 4.04787,4.471418 6.67284,5.821347 3.07131,1.579469 6.62912,2.308771 10.081838,2.388653 4.31905,0.09992 12.73617,-2.401549 12.73617,-2.401549 0,0 -6.68814,3.370557 -10.30648,4.174746 -3.40171,0.756041 -6.981248,0.975886 -10.439708,0.548968 -3.38724,-0.418126 -6.76745,-1.417265 -9.78704,-3.007944 -2.6887,-1.41637 -5.07438,-3.44085 -7.1374,-5.672257 -2.84067,-3.072527 -7.01688,-10.409208 -7.01688,-10.409208 z"
       id="path39692"
       sodipodi:nodetypes="ccssscssssc" />
  </g>
</svg>
